<?xml version="1.0" standalone="no"?>
<!DOCTYPE svg PUBLIC "-//W3C//DTD SVG 20010904//EN"
 "http://www.w3.org/TR/2001/REC-SVG-20010904/DTD/svg10.dtd">
<svg version="1.0" xmlns="http://www.w3.org/2000/svg"
 width="512.000000pt" height="512.000000pt" viewBox="0 0 512.000000 512.000000"
 preserveAspectRatio="xMidYMid meet">

<g transform="translate(0.000000,512.000000) scale(0.100000,-0.100000)"
fill="#fff" stroke="none">
<path d="M2400 4880 l0 -160 -80 0 -80 0 0 -160 0 -160 -200 0 -200 0 0 -240
0 -240 160 0 160 0 0 -769 0 -769 -160 40 -160 40 0 329 0 329 80 0 80 0 0 80
0 80 -240 0 -240 0 0 240 0 240 -80 0 -80 0 0 -240 0 -240 -80 0 -80 0 0 80 0
80 -80 0 -80 0 0 -80 0 -80 -80 0 -80 0 0 160 0 160 -80 0 -80 0 0 -160 0
-160 -240 0 -240 0 0 -80 0 -80 80 0 80 0 0 -1238 0 -1238 -46 -49 c-26 -26
-60 -78 -77 -114 -28 -58 -31 -77 -32 -153 l0 -88 -82 0 -83 0 0 -80 0 -80
2480 0 2480 0 0 80 0 80 -160 0 -160 0 0 163 0 162 62 29 c230 107 326 433
201 686 -46 95 -128 178 -207 210 l-56 24 0 1283 0 1283 -80 0 -80 0 0 160 0
160 -160 0 -160 0 0 160 0 160 -80 0 -80 0 0 160 0 160 -80 0 -80 0 0 -160 0
-160 -80 0 -80 0 0 -160 0 -160 -160 0 -160 0 0 -160 0 -160 -80 0 -80 0 0
-347 0 -348 -93 -29 c-98 -32 -262 -111 -339 -164 l-48 -33 0 381 0 380 160 0
160 0 0 240 0 240 -200 0 -200 0 0 160 0 160 -80 0 -80 0 0 160 0 160 -80 0
-80 0 0 -160z m160 -400 l0 -80 -80 0 -80 0 0 80 0 80 80 0 80 0 0 -80z m1520
0 l0 -80 -80 0 -80 0 0 80 0 80 80 0 80 0 0 -80z m-1120 -320 l0 -80 -480 0
-480 0 0 80 0 80 480 0 480 0 0 -80z m1440 0 l0 -80 -400 0 -400 0 0 80 0 80
400 0 400 0 0 -80z m-1760 -688 l0 -448 -56 -54 c-71 -71 -150 -173 -213 -279
l-51 -84 0 656 0 657 160 0 160 0 0 -448z m1920 -755 l0 -1203 -55 -23 c-53
-22 -149 -103 -174 -146 l-11 -20 -11 20 c-24 42 -113 118 -168 144 -47 22
-70 26 -141 26 -88 0 -129 -13 -207 -65 l-33 -22 0 1008 0 1007 -137 -6 c-76
-4 -148 -9 -160 -13 l-23 -6 0 251 0 251 560 0 560 0 0 -1203z m-960 -823 c0
-1316 -1 -1386 -17 -1379 -52 20 -173 45 -222 45 l-56 0 -25 47 c-13 26 -53
75 -87 109 -176 176 -457 213 -670 89 l-43 -26 -2 762 -3 763 -35 8 c-19 5
-40 11 -47 13 -9 3 -6 22 12 70 144 382 452 680 835 810 101 34 245 65 343 74
16 1 17 -71 17 -1385z m-1920 917 l0 -309 -312 79 c-172 43 -316 79 -320 79
-5 0 -8 -461 -8 -1025 0 -756 -3 -1031 -12 -1050 -18 -39 -53 -33 -110 21 -27
25 -79 60 -116 77 -59 28 -78 31 -154 32 l-88 0 0 1203 0 1202 560 0 560 0 0
-309z m640 -1378 l0 -745 -22 6 c-82 24 -140 29 -203 17 -36 -6 -80 -19 -98
-27 l-33 -16 -57 55 c-108 103 -231 152 -387 152 -113 0 -190 -20 -277 -70
l-43 -24 0 838 0 839 560 -140 560 -140 0 -745z m1755 -92 c23 -10 59 -39 82
-65 57 -65 78 -129 78 -241 -1 -77 -5 -99 -29 -152 -18 -39 -46 -79 -75 -105
l-46 -43 -3 153 -3 152 -79 0 -79 0 -3 -152 -3 -153 -55 55 c-72 72 -95 133
-95 250 0 106 22 172 78 236 46 52 104 84 157 84 19 0 53 -9 75 -19z m640 0
c23 -10 59 -39 82 -65 57 -65 78 -129 78 -241 -1 -77 -5 -99 -29 -152 -18 -39
-46 -79 -75 -105 l-46 -43 -3 153 -3 152 -79 0 -79 0 -3 -152 -3 -153 -55 55
c-72 72 -95 133 -95 250 0 106 22 172 78 236 46 52 104 84 157 84 19 0 53 -9
75 -19z m-368 -626 c30 -45 111 -109 168 -130 l45 -18 0 -163 0 -164 -240 0
-240 0 0 164 0 163 45 18 c57 21 132 80 165 128 14 20 27 37 30 37 3 0 15 -16
27 -35z m-2663 -33 c85 -40 143 -95 191 -181 22 -39 42 -71 45 -71 3 0 28 20
55 44 75 65 110 80 185 80 75 0 110 -15 185 -80 27 -24 52 -44 55 -44 3 0 23
32 45 71 49 87 106 141 193 182 61 29 76 32 162 32 86 0 101 -3 162 -32 112
-53 188 -141 228 -266 l12 -39 47 9 c25 4 82 8 126 7 69 0 90 -5 145 -31 64
-30 150 -96 150 -114 0 -5 -642 -9 -1629 -9 l-1630 0 -7 47 c-25 169 146 315
307 262 48 -17 95 -54 134 -107 33 -45 33 -46 86 -43 32 1 80 -6 117 -17 34
-11 64 -17 66 -13 2 3 9 24 16 46 35 113 118 218 207 261 112 54 240 56 347 6z
m2189 -95 l47 -21 0 -163 0 -163 -27 0 c-22 0 -33 9 -51 40 -12 22 -36 55 -52
74 l-30 34 0 132 0 132 33 -22 c17 -12 53 -31 80 -43z"/>
<path d="M3600 3680 l0 -80 80 0 80 0 0 80 0 80 -80 0 -80 0 0 -80z"/>
<path d="M3920 3680 l0 -80 80 0 80 0 0 80 0 80 -80 0 -80 0 0 -80z"/>
<path d="M4240 3680 l0 -80 80 0 80 0 0 80 0 80 -80 0 -80 0 0 -80z"/>
<path d="M3920 3360 l0 -80 80 0 80 0 0 80 0 80 -80 0 -80 0 0 -80z"/>
<path d="M4240 3360 l0 -80 80 0 80 0 0 80 0 80 -80 0 -80 0 0 -80z"/>
<path d="M3920 3040 l0 -80 80 0 80 0 0 80 0 80 -80 0 -80 0 0 -80z"/>
<path d="M4240 3040 l0 -80 80 0 80 0 0 80 0 80 -80 0 -80 0 0 -80z"/>
<path d="M3920 2720 l0 -80 80 0 80 0 0 80 0 80 -80 0 -80 0 0 -80z"/>
<path d="M4240 2720 l0 -80 80 0 80 0 0 80 0 80 -80 0 -80 0 0 -80z"/>
<path d="M3920 2400 l0 -80 80 0 80 0 0 80 0 80 -80 0 -80 0 0 -80z"/>
<path d="M4240 2400 l0 -80 80 0 80 0 0 80 0 80 -80 0 -80 0 0 -80z"/>
<path d="M3920 2080 l0 -80 80 0 80 0 0 80 0 80 -80 0 -80 0 0 -80z"/>
<path d="M4240 2080 l0 -80 80 0 80 0 0 80 0 80 -80 0 -80 0 0 -80z"/>
<path d="M3920 1760 l0 -80 80 0 80 0 0 80 0 80 -80 0 -80 0 0 -80z"/>
<path d="M4240 1760 l0 -80 80 0 80 0 0 80 0 80 -80 0 -80 0 0 -80z"/>
<path d="M2960 2720 l0 -80 80 0 80 0 0 80 0 80 -80 0 -80 0 0 -80z"/>
<path d="M3280 2720 l0 -80 80 0 80 0 0 80 0 80 -80 0 -80 0 0 -80z"/>
<path d="M2640 2400 l0 -80 80 0 80 0 0 80 0 80 -80 0 -80 0 0 -80z"/>
<path d="M2960 2400 l0 -80 80 0 80 0 0 80 0 80 -80 0 -80 0 0 -80z"/>
<path d="M3280 2400 l0 -80 80 0 80 0 0 80 0 80 -80 0 -80 0 0 -80z"/>
<path d="M2640 2080 l0 -80 80 0 80 0 0 80 0 80 -80 0 -80 0 0 -80z"/>
<path d="M2960 2080 l0 -80 80 0 80 0 0 80 0 80 -80 0 -80 0 0 -80z"/>
<path d="M3280 2080 l0 -80 80 0 80 0 0 80 0 80 -80 0 -80 0 0 -80z"/>
<path d="M2640 1760 l0 -80 80 0 80 0 0 80 0 80 -80 0 -80 0 0 -80z"/>
<path d="M2960 1760 l0 -80 80 0 80 0 0 80 0 80 -80 0 -80 0 0 -80z"/>
<path d="M3280 1760 l0 -80 80 0 80 0 0 80 0 80 -80 0 -80 0 0 -80z"/>
<path d="M2640 1440 l0 -80 80 0 80 0 0 80 0 80 -80 0 -80 0 0 -80z"/>
<path d="M2960 1440 l0 -80 80 0 80 0 0 80 0 80 -80 0 -80 0 0 -80z"/>
<path d="M3280 1440 l0 -80 80 0 80 0 0 80 0 80 -80 0 -80 0 0 -80z"/>
<path d="M2640 1120 l0 -80 80 0 80 0 0 80 0 80 -80 0 -80 0 0 -80z"/>
<path d="M2960 1120 l0 -80 80 0 80 0 0 80 0 80 -80 0 -80 0 0 -80z"/>
<path d="M3280 1120 l0 -80 80 0 80 0 0 80 0 80 -80 0 -80 0 0 -80z"/>
<path d="M720 2880 l0 -80 80 0 80 0 0 80 0 80 -80 0 -80 0 0 -80z"/>
<path d="M1040 2880 l0 -80 80 0 80 0 0 80 0 80 -80 0 -80 0 0 -80z"/>
<path d="M1360 2880 l0 -80 80 0 80 0 0 80 0 80 -80 0 -80 0 0 -80z"/>
<path d="M720 2560 l0 -80 80 0 80 0 0 80 0 80 -80 0 -80 0 0 -80z"/>
<path d="M720 2240 l0 -80 80 0 80 0 0 80 0 80 -80 0 -80 0 0 -80z"/>
<path d="M720 1920 l0 -80 80 0 80 0 0 80 0 80 -80 0 -80 0 0 -80z"/>
<path d="M720 1600 l0 -80 80 0 80 0 0 80 0 80 -80 0 -80 0 0 -80z"/>
<path d="M720 1280 l0 -80 80 0 80 0 0 80 0 80 -80 0 -80 0 0 -80z"/>
<path d="M720 960 l0 -80 80 0 80 0 0 80 0 80 -80 0 -80 0 0 -80z"/>
<path d="M1360 2080 l0 -80 80 0 80 0 0 80 0 80 -80 0 -80 0 0 -80z"/>
<path d="M1680 2080 l0 -80 80 0 80 0 0 80 0 80 -80 0 -80 0 0 -80z"/>
<path d="M2000 2080 l0 -80 80 0 80 0 0 80 0 80 -80 0 -80 0 0 -80z"/>
<path d="M1360 1760 l0 -80 80 0 80 0 0 80 0 80 -80 0 -80 0 0 -80z"/>
<path d="M1680 1760 l0 -80 80 0 80 0 0 80 0 80 -80 0 -80 0 0 -80z"/>
<path d="M2000 1760 l0 -80 80 0 80 0 0 80 0 80 -80 0 -80 0 0 -80z"/>
<path d="M1360 1440 l0 -80 80 0 80 0 0 80 0 80 -80 0 -80 0 0 -80z"/>
<path d="M1680 1440 l0 -80 80 0 80 0 0 80 0 80 -80 0 -80 0 0 -80z"/>
<path d="M2000 1440 l0 -80 80 0 80 0 0 80 0 80 -80 0 -80 0 0 -80z"/>
<path d="M1360 1120 l0 -80 80 0 80 0 0 80 0 80 -80 0 -80 0 0 -80z"/>
<path d="M1680 1120 l0 -80 80 0 80 0 0 80 0 80 -80 0 -80 0 0 -80z"/>
<path d="M2000 1120 l0 -80 80 0 80 0 0 80 0 80 -80 0 -80 0 0 -80z"/>
</g>
</svg>
