<?xml version="1.0" standalone="no"?>
<!DOCTYPE svg PUBLIC "-//W3C//DTD SVG 20010904//EN"
 "http://www.w3.org/TR/2001/REC-SVG-20010904/DTD/svg10.dtd">
<svg version="1.0" xmlns="http://www.w3.org/2000/svg"
 width="512.000000pt" height="512.000000pt" viewBox="0 0 512.000000 512.000000"
 preserveAspectRatio="xMidYMid meet">

<g transform="translate(0.000000,512.000000) scale(0.100000,-0.100000)"
fill="#fff" stroke="none">
<path d="M995 5106 c-83 -20 -146 -56 -211 -120 -65 -66 -105 -137 -123 -224
-8 -38 -11 -553 -11 -1797 0 -1732 0 -1745 20 -1765 24 -24 77 -27 106 -6 19
14 19 47 24 1783 l5 1768 28 57 c32 64 80 111 146 142 45 21 56 21 868 24
l822 2 3 -652 3 -653 23 -57 c35 -86 101 -169 172 -216 107 -72 127 -75 459
-80 208 -2 302 0 322 8 48 20 58 93 17 127 -9 8 -106 13 -313 15 -300 3 -300
3 -355 29 -66 31 -121 85 -152 148 l-23 46 -3 590 -2 590 695 -695 c382 -382
695 -698 695 -702 0 -5 -42 -8 -92 -8 -99 0 -109 -3 -127 -37 -17 -34 -13 -62
14 -88 23 -24 28 -25 175 -25 l150 0 -2 -1462 -3 -1463 -26 -55 c-31 -66 -85
-121 -148 -152 l-46 -23 -1540 0 -1540 0 -57 28 c-64 32 -111 80 -142 146 -19
41 -22 69 -26 279 -5 217 -6 235 -24 248 -29 21 -82 18 -106 -6 -19 -19 -20
-33 -20 -230 0 -115 5 -233 11 -262 18 -87 58 -158 123 -223 68 -68 142 -107
232 -125 43 -8 485 -10 1584 -8 l1525 3 57 23 c126 51 222 150 270 277 l23 60
0 1528 0 1527 -850 850 -850 850 -865 -1 c-646 0 -878 -4 -915 -13z"/>
<path d="M1112 4530 c-39 -16 -43 -48 -40 -348 l3 -284 24 -19 c30 -25 62 -24
95 2 l26 20 0 299 0 299 -26 20 c-29 23 -46 25 -82 11z"/>
<path d="M1112 3670 c-36 -15 -44 -54 -40 -202 3 -150 8 -162 63 -174 22 -4
38 0 58 16 l27 21 0 154 0 154 -26 20 c-29 23 -46 25 -82 11z"/>
<path d="M1655 2305 c-14 -13 -25 -36 -25 -50 0 -14 11 -37 25 -50 22 -22 32
-25 105 -25 l80 0 0 -555 0 -555 -80 0 c-73 0 -83 -3 -105 -25 -32 -31 -32
-69 0 -100 l24 -25 239 0 c216 0 242 2 262 18 16 13 22 29 22 57 0 60 -25 75
-128 75 l-84 0 0 555 0 555 84 0 c103 0 128 15 128 75 0 28 -6 44 -22 57 -20
16 -46 18 -262 18 l-239 0 -24 -25z"/>
<path d="M2915 2305 c-14 -13 -25 -36 -25 -50 0 -14 11 -37 25 -50 22 -23 32
-25 120 -25 l95 0 0 -206 0 -206 -50 37 c-221 162 -514 79 -636 -180 -67 -140
-67 -300 0 -440 122 -259 415 -342 636 -180 l50 37 0 -40 c0 -32 6 -45 26 -61
24 -19 40 -21 159 -21 156 0 177 9 177 75 0 60 -25 75 -128 75 l-84 0 0 605 0
606 -25 24 c-23 24 -28 25 -170 25 -142 0 -147 -1 -170 -25z m33 -594 c58 -30
110 -85 141 -150 23 -49 26 -69 26 -156 0 -87 -3 -107 -26 -155 -31 -65 -84
-121 -142 -152 -61 -33 -165 -32 -231 2 -182 93 -229 376 -90 539 83 96 216
126 322 72z"/>
</g>
</svg>
