<?xml version="1.0" standalone="no"?>
<!DOCTYPE svg PUBLIC "-//W3C//DTD SVG 20010904//EN"
 "http://www.w3.org/TR/2001/REC-SVG-20010904/DTD/svg10.dtd">
<svg version="1.0" xmlns="http://www.w3.org/2000/svg"
 width="512.000000pt" height="512.000000pt" viewBox="0 0 512.000000 512.000000"
 preserveAspectRatio="xMidYMid meet">

<g transform="translate(0.000000,512.000000) scale(0.100000,-0.100000)"
fill="#fff" stroke="none">
<path d="M3566 5099 l-26 -20 0 -364 0 -364 -572 -3 -573 -3 -77 -26 c-122
-42 -204 -93 -295 -184 -100 -101 -162 -218 -189 -357 l-17 -87 -736 -3 c-715
-3 -737 -4 -770 -23 -19 -11 -43 -33 -55 -48 -21 -28 -21 -36 -24 -651 l-2
-622 -69 -10 c-125 -20 -161 -71 -161 -227 0 -146 35 -206 132 -227 32 -6 395
-10 1053 -10 l1005 0 0 -119 c0 -66 5 -132 11 -148 15 -40 57 -81 96 -94 l33
-11 0 -292 0 -293 23 -21 c33 -31 80 -29 106 4 20 26 21 38 21 315 l0 289 85
0 85 0 0 -500 0 -500 -85 0 -85 0 0 75 c0 41 -5 85 -11 99 -16 35 -63 50 -99
31 -36 -19 -40 -31 -40 -126 l0 -79 -97 0 c-190 -1 -253 -64 -253 -255 l0 -95
-332 0 c-257 -1 -337 -4 -350 -14 -39 -30 -40 -92 0 -122 14 -11 252 -13 1263
-14 1246 0 1246 0 1273 21 36 28 36 80 0 108 -26 20 -38 21 -355 21 l-329 0 0
95 c0 191 -63 254 -252 255 l-98 0 0 499 0 500 23 7 c41 13 79 47 98 88 15 32
19 66 19 159 l0 117 1000 0 c654 0 1016 4 1048 10 54 12 98 47 118 96 19 45
19 213 0 258 -30 72 -100 106 -216 106 l-49 0 -3 718 -3 717 -27 80 c-39 114
-92 199 -178 285 -87 87 -172 139 -285 177 -78 26 -88 27 -368 31 l-288 4 3
100 3 100 249 98 c136 54 259 108 272 120 12 13 26 35 29 50 8 36 -17 95 -45
110 -30 16 -571 190 -591 190 -9 0 -28 -9 -43 -21z m285 -209 c74 -23 138 -45
142 -49 4 -5 -16 -17 -45 -28 -29 -12 -99 -39 -155 -61 l-103 -40 0 115 c0 92
3 114 13 110 8 -3 74 -24 148 -47z m-1208 -705 c160 -34 304 -148 376 -297 48
-100 61 -167 61 -310 0 -102 1 -110 25 -133 31 -32 69 -32 100 0 23 23 25 31
25 132 0 246 -63 417 -206 561 l-62 62 611 0 c684 0 694 -1 820 -67 139 -73
250 -219 282 -370 12 -55 15 -196 15 -745 l0 -678 -730 0 -730 0 0 429 c0 236
-4 441 -9 454 -20 51 -105 56 -130 8 -7 -13 -11 -167 -11 -455 l0 -436 -295 0
-295 0 -2 624 c-3 617 -3 625 -24 653 -46 62 -69 68 -292 72 l-203 3 6 37 c19
113 100 259 183 331 137 117 311 162 485 125z m-1973 -847 c0 -172 2 -196 19
-222 47 -71 116 -83 205 -36 l56 29 63 -29 c71 -34 104 -37 153 -14 65 31 74
67 74 279 l0 185 160 0 160 0 0 -595 0 -595 -590 0 -590 0 0 595 0 595 145 0
145 0 0 -192z m420 32 l0 -159 -62 29 c-35 17 -69 30 -76 30 -7 0 -39 -14 -72
-30 l-60 -30 0 160 0 160 135 0 135 0 0 -160z m1250 -435 l0 -595 -315 0 -315
0 0 595 0 595 315 0 315 0 0 -595z m408 -832 l-3 -78 -1295 0 -1295 0 -3 78
-3 77 1301 0 1301 0 -3 -77z m2220 0 l-3 -78 -1032 -3 -1033 -2 0 80 0 80
1035 0 1036 0 -3 -77z m-2178 -343 l0 -110 -225 0 -225 0 0 110 0 110 225 0
225 0 0 -110z m200 -1429 c5 -11 10 -56 10 -100 l0 -81 -435 0 -435 0 0 88 c0
55 4 92 12 100 9 9 117 12 425 12 397 0 413 -1 423 -19z"/>
<path d="M3474 3580 c-25 -13 -49 -35 -62 -59 -21 -38 -22 -47 -22 -406 0
-359 0 -368 22 -406 14 -25 37 -46 64 -59 40 -20 57 -20 517 -18 462 3 476 4
503 24 15 11 37 33 48 48 20 27 21 39 21 411 0 372 -1 384 -21 411 -11 15 -33
37 -48 48 -27 20 -40 21 -504 24 -462 2 -478 2 -518 -18z m946 -465 l0 -335
-440 0 -440 0 0 335 0 335 440 0 440 0 0 -335z"/>
<path d="M3655 3295 c-14 -13 -25 -36 -25 -50 0 -14 11 -37 25 -50 21 -22 33
-25 93 -25 87 0 116 19 116 75 0 56 -29 75 -116 75 -60 0 -72 -3 -93 -25z"/>
<path d="M3965 3295 c-14 -13 -25 -36 -25 -50 0 -14 11 -37 25 -50 23 -24 28
-25 173 -25 131 0 153 2 173 19 17 13 23 29 23 56 0 27 -6 43 -23 56 -20 17
-42 19 -173 19 -145 0 -150 -1 -173 -25z"/>
<path d="M3655 3035 c-14 -13 -25 -36 -25 -50 0 -14 11 -37 25 -50 23 -24 28
-25 173 -25 131 0 153 2 173 19 17 13 23 29 23 56 0 27 -6 43 -23 56 -20 17
-42 19 -173 19 -145 0 -150 -1 -173 -25z"/>
<path d="M4125 3035 c-14 -13 -25 -36 -25 -50 0 -14 11 -37 25 -50 21 -22 33
-25 93 -25 87 0 116 19 116 75 0 56 -29 75 -116 75 -60 0 -72 -3 -93 -25z"/>
<path d="M573 2964 c-65 -33 -73 -60 -73 -259 0 -161 2 -181 20 -210 40 -65
49 -66 449 -63 l359 3 27 25 c51 47 55 66 55 245 0 179 -4 198 -55 245 l-27
25 -361 2 c-317 3 -366 1 -394 -13z m687 -259 l0 -125 -305 0 -305 0 0 125 0
125 305 0 305 0 0 -125z"/>
</g>
</svg>
